# xmcd CD database file
#
# Track frame offsets:
#	150
#	45895
#	117872
#	156831
#	240123
#	276474
#
# Disc length: 4153 seconds
#
# Revision: 0
# Processed by: cddbd v1.5.2PL0 Copyright (c) Steve Scherf et al.
# Submitted via: CDex 1.70beta2
#
DISCID=41103706
DTITLE=Hauke Nissen - Inselsommer
DYEAR=2004
DGENRE=New Age
TTITLE0=Ein neuer Tag
TTITLE1=Meer von Glück
TTITLE2=Sommerwiese
TTITLE3=Goldener Horizont
TTITLE4=Zwei Vögel im Licht
TTITLE5=Be-rauschendes Meer
EXTD=YEAR: 2004
EXTT0=
EXTT1=
EXTT2=
EXTT3=
EXTT4=
EXTT5=
PLAYORDER=
